<?xml version="1.0" standalone="no"?>
<!DOCTYPE svg PUBLIC "-//W3C//DTD SVG 20010904//EN"
 "http://www.w3.org/TR/2001/REC-SVG-20010904/DTD/svg10.dtd">
<svg version="1.0" xmlns="http://www.w3.org/2000/svg"
 width="1024.000000pt" height="1024.000000pt" viewBox="0 0 1024.000000 1024.000000"
 preserveAspectRatio="xMidYMid meet">

<g transform="translate(0.000000,1024.000000) scale(0.100000,-0.100000)"
fill="#000000" stroke="none">
<path d="M2274 5645 c-74 -16 -110 -33 -148 -71 -61 -62 -84 -141 -66 -227 23
-115 88 -164 259 -198 109 -22 141 -39 141 -74 0 -41 -38 -58 -122 -53 -68 3
-100 14 -200 66 -12 6 -82 -144 -75 -161 8 -21 121 -74 187 -88 29 -6 92 -9
140 -7 74 3 98 9 154 37 112 55 163 158 137 281 -22 109 -87 156 -265 192 -59
11 -117 29 -129 38 -19 15 -20 21 -9 44 6 15 24 31 39 37 40 16 141 5 193 -20
24 -11 45 -21 46 -21 3 0 29 57 60 127 l14 33 -48 24 c-92 47 -211 63 -308 41z"/>
<path d="M7557 5618 c-13 -24 -57 -108 -97 -187 l-72 -144 -45 84 c-25 46 -65
123 -89 172 l-44 87 -129 0 -130 0 56 -87 c61 -97 306 -582 344 -680 13 -35
26 -63 29 -63 5 1 131 262 176 365 l26 60 16 -30 c8 -17 44 -93 79 -170 l63
-140 56 0 55 0 19 45 c11 25 81 189 156 365 75 176 139 326 141 333 4 10 -18
12 -102 10 l-107 -3 -52 -130 c-29 -71 -65 -166 -81 -210 -15 -44 -31 -83 -35
-88 -3 -4 -19 25 -34 65 -26 66 -164 379 -171 386 -1 2 -14 -16 -28 -40z"/>
<path d="M2716 5483 c91 -190 238 -481 295 -581 47 -86 38 -91 119 63 29 55
68 129 88 164 l34 64 90 -173 90 -172 74 139 c107 199 282 547 304 604 l20 49
-114 0 -113 0 -56 -127 c-77 -179 -111 -252 -117 -253 -3 0 -43 77 -89 171
l-83 172 -92 -178 c-50 -98 -95 -178 -100 -179 -5 0 -22 31 -38 69 -17 39 -55
127 -85 198 l-56 127 -123 0 -123 0 75 -157z"/>
<path d="M6580 5629 c-69 -13 -180 -73 -232 -124 -26 -25 -60 -72 -75 -103
-26 -52 -28 -66 -28 -167 1 -92 4 -118 23 -158 l22 -48 -123 3 -122 3 -3 293
-2 292 -116 0 -116 0 6 -122 c3 -68 5 -243 6 -390 l0 -268 193 0 c105 0 229 3
275 7 l82 6 0 39 0 39 29 -21 c128 -91 326 -110 468 -45 67 30 142 100 177
165 36 66 59 180 51 250 -14 124 -104 244 -230 306 -98 48 -188 62 -285 43z
m176 -218 c87 -39 134 -135 113 -232 -21 -99 -128 -171 -227 -153 -77 14 -149
68 -172 129 -14 37 -15 121 -2 156 13 34 61 81 104 102 44 22 133 21 184 -2z"/>
<path d="M3980 5564 c-18 -32 -70 -113 -115 -179 -45 -66 -109 -167 -142 -225
-33 -58 -91 -158 -128 -223 -37 -65 -64 -121 -61 -125 4 -3 236 -8 517 -10
l509 -4 -262 395 c-145 217 -268 403 -274 413 -9 15 -15 10 -44 -42z m105
-445 c35 -52 62 -95 61 -96 -7 -7 -266 -14 -266 -8 0 13 132 207 136 202 3 -3
34 -47 69 -98z"/>
<path d="M4460 5360 l0 -260 78 -93 c42 -52 91 -111 109 -133 l32 -39 0 108 1
107 113 0 c77 0 128 5 160 16 61 20 131 84 165 148 55 106 24 260 -70 340 -69
60 -103 66 -360 66 l-228 0 0 -260z m427 45 c29 -21 37 -65 19 -108 -18 -44
-62 -60 -156 -55 l-65 3 -3 74 c-2 41 -1 80 2 88 8 19 174 18 203 -2z"/>
<path d="M5180 5236 l0 -385 115 -3 115 -3 0 133 0 132 165 0 165 0 0 90 c0
79 -2 90 -17 90 -10 1 -80 1 -156 0 -75 -1 -141 1 -145 4 -4 2 -6 36 -4 75 l4
71 164 0 164 0 0 74 c0 41 3 81 6 90 6 14 -24 16 -285 16 l-291 0 0 -384z"/>
<path d="M3474 4519 c-42 -12 -60 -34 -44 -53 10 -13 16 -13 45 1 44 21 85 11
85 -21 0 -26 -15 -42 -45 -48 -36 -6 -29 -33 11 -44 45 -11 64 -36 48 -61 -15
-24 -80 -29 -103 -9 -18 17 -64 11 -58 -7 9 -29 60 -52 114 -52 48 0 58 4 79
28 32 38 31 80 -2 106 l-26 20 21 27 c27 34 27 57 -1 88 -26 28 -78 38 -124
25z"/>
<path d="M2373 4508 c79 -201 110 -274 116 -281 4 -4 22 29 40 73 18 44 36 80
41 80 4 0 22 -36 41 -80 18 -44 36 -77 39 -73 4 5 28 67 55 138 26 72 50 136
52 143 3 7 -4 12 -19 12 -22 0 -29 -10 -58 -85 -18 -47 -36 -82 -40 -78 -4 4
-21 43 -40 86 -18 42 -34 77 -35 77 -1 0 -17 -41 -36 -92 -29 -82 -34 -89 -42
-67 -50 125 -70 159 -95 159 -15 0 -22 -5 -19 -12z"/>
<path d="M2808 4375 l3 -145 95 0 c87 0 94 1 94 20 0 18 -7 20 -70 20 l-70 0
0 40 0 39 58 3 c50 3 57 6 60 26 3 21 0 22 -57 22 l-61 0 0 35 c0 34 1 35 39
35 67 0 101 11 101 31 0 17 -9 19 -97 19 l-98 0 3 -145z"/>
<path d="M3060 4381 c0 -86 4 -142 10 -146 6 -4 46 -7 90 -8 71 -1 81 1 104
22 32 30 34 78 7 112 -17 22 -17 27 -5 44 21 28 17 63 -11 90 -22 23 -32 25
-110 25 l-85 0 0 -139z m151 80 c37 -30 16 -55 -50 -59 l-51 -3 0 34 c0 18 3
37 7 40 13 14 72 6 94 -12z m19 -116 c18 -11 11 -54 -10 -65 -12 -6 -40 -10
-63 -8 -38 3 -42 6 -45 31 -6 50 2 57 57 53 28 -3 55 -7 61 -11z"/>
<path d="M4144 4444 c-68 -148 -94 -206 -94 -210 0 -2 11 -4 24 -4 19 0 28 8
37 35 13 35 14 35 71 35 57 0 59 -1 75 -35 12 -25 23 -35 40 -35 13 0 23 2 23
5 0 9 -122 270 -130 279 -5 5 -24 -24 -46 -70z m76 -91 c0 -8 -14 -13 -36 -13
-30 0 -35 3 -29 18 4 9 12 30 18 46 l10 29 18 -34 c10 -19 18 -40 19 -46z"/>
<path d="M5214 4507 c-2 -7 -3 -71 -2 -143 3 -121 4 -129 23 -129 18 0 20 8
25 94 l5 94 75 -96 c105 -136 110 -134 110 48 l0 145 -25 0 c-24 0 -24 -2 -27
-94 l-3 -93 -75 93 c-71 91 -95 109 -106 81z"/>
<path d="M5522 4498 c2 -18 10 -24 36 -26 l32 -3 0 -120 0 -119 25 0 25 0 0
120 0 120 41 0 c36 0 40 2 37 23 -3 21 -8 22 -101 25 -98 3 -98 3 -95 -20z"/>
<path d="M5960 4498 c-74 -38 -99 -117 -61 -188 25 -49 75 -80 125 -80 46 0
112 28 110 48 -1 6 -2 35 -2 62 l-2 50 -50 0 c-47 0 -50 -2 -50 -25 0 -21 5
-25 31 -25 27 0 30 -3 27 -27 -3 -26 -7 -28 -50 -31 -40 -3 -52 1 -73 22 -37
37 -36 107 2 142 28 26 61 28 119 9 15 -5 23 -1 31 18 10 22 8 24 -33 35 -61
16 -73 15 -124 -10z"/>
<path d="M6295 4498 c-4 -13 -34 -76 -66 -140 l-59 -118 29 0 c22 0 31 7 41
30 12 29 15 30 72 30 57 0 60 -1 71 -30 9 -23 18 -30 38 -30 l27 0 -59 129
c-32 71 -59 134 -59 140 0 20 -29 11 -35 -11z m54 -150 c1 -5 -15 -8 -34 -8
-40 0 -42 5 -18 56 l18 36 17 -39 c9 -21 17 -41 17 -45z"/>
<path d="M6462 4503 c2 -13 14 -19 41 -21 l37 -3 0 -120 0 -119 25 0 25 0 0
120 0 120 40 0 c33 0 40 3 40 20 0 19 -7 20 -106 20 -95 0 -105 -2 -102 -17z"/>
<path d="M6732 4378 l3 -143 93 -3 92 -3 0 26 c0 24 -2 25 -70 25 l-70 0 0 40
0 40 60 0 c53 0 60 2 60 20 0 18 -7 20 -60 20 l-60 0 0 40 0 39 67 3 c55 2 68
6 71 21 3 15 -7 17 -93 17 l-96 0 3 -142z"/>
<path d="M6970 4513 c0 -15 104 -283 109 -283 4 0 19 38 36 84 16 47 31 83 35
81 3 -2 19 -40 35 -84 16 -45 32 -78 36 -73 4 4 25 57 47 117 22 61 45 123 51
138 11 27 10 28 -16 25 -25 -3 -31 -11 -58 -91 l-31 -88 -28 86 c-16 51 -32
85 -39 82 -6 -2 -23 -36 -37 -75 -14 -40 -27 -72 -30 -72 -3 0 -17 35 -31 78
-22 69 -28 77 -52 80 -15 2 -27 0 -27 -5z"/>
<path d="M7441 4498 c-5 -13 -34 -76 -64 -140 l-56 -118 27 0 c21 0 30 7 39
30 11 29 14 30 71 30 57 0 60 -1 72 -30 9 -21 19 -30 36 -30 13 0 24 1 24 3 0
16 -120 272 -129 275 -6 2 -15 -7 -20 -20z m37 -95 c5 -16 13 -36 17 -45 6
-15 1 -18 -34 -18 -23 0 -41 2 -41 5 0 14 33 85 40 85 4 0 13 -12 18 -27z"/>
<path d="M7630 4438 c45 -74 50 -89 50 -140 0 -55 1 -58 25 -58 23 0 25 4 25
45 0 34 12 68 45 135 25 49 45 92 45 95 0 4 -10 5 -22 3 -14 -2 -32 -23 -56
-66 l-35 -64 -36 66 c-30 57 -39 66 -63 66 l-27 0 49 -82z"/>
<path d="M3828 4400 c-1 -60 -2 -122 -2 -137 -1 -24 4 -29 28 -31 l29 -4 -6
50 -6 50 61 4 c51 4 65 9 85 32 32 38 30 80 -6 117 -27 27 -35 29 -105 29
l-76 0 -2 -110z m140 54 c47 -33 7 -89 -60 -82 -29 3 -33 7 -36 36 -2 19 -1
40 2 48 7 19 66 18 94 -2z"/>
<path d="M4310 4506 c0 -3 22 -42 50 -88 43 -71 50 -90 50 -135 0 -50 2 -53
25 -53 24 0 25 3 25 58 0 51 5 66 50 140 l49 82 -29 0 c-24 0 -33 -8 -60 -55
-17 -30 -33 -55 -36 -55 -2 0 -20 25 -39 55 -28 42 -41 55 -60 55 -14 0 -25
-2 -25 -4z"/>
<path d="M4600 4370 l0 -140 25 0 c25 0 25 1 25 83 l1 82 36 -57 c20 -32 43
-58 52 -58 9 0 33 29 55 65 21 36 40 65 41 65 2 0 2 -39 2 -87 -2 -84 -1 -88
21 -91 22 -3 22 -3 22 137 0 176 -9 182 -89 55 -60 -97 -51 -98 -115 19 -26
46 -44 67 -57 67 -18 0 -19 -9 -19 -140z"/>
<path d="M4970 4370 l0 -140 90 0 c89 0 90 0 90 25 0 24 -2 25 -71 25 l-70 0
3 38 3 37 58 3 c49 3 57 6 57 22 0 17 -7 20 -55 20 l-55 0 0 35 0 35 65 0 c58
0 65 2 65 20 0 19 -7 20 -90 20 l-90 0 0 -140z"/>
</g>
</svg>
